<?xml version="1.0" encoding="UTF-8"?>
<svg id="Foreground" xmlns="http://www.w3.org/2000/svg" viewBox="0 0 2349.92 725.67">
  <defs>
    <style>
      .cls-1, .cls-2, .cls-3, .cls-4, .cls-5 {
        font-family: Quicksand-SemiBold, Quicksand;
        font-size: 279px;
        font-weight: 600;
      }

      .cls-1, .cls-6 {
        fill: #707070;
      }

      .cls-7, .cls-5 {
        fill: #fff;
      }

      .cls-8, .cls-2 {
        fill: #5b5b5b;
      }

      .cls-9, .cls-3 {
        fill: #b2b2b2;
      }

      .cls-10 {
        letter-spacing: -.03em;
      }

      .cls-11, .cls-4 {
        fill: #939393;
      }

      .cls-12 {
        letter-spacing: -.03em;
      }

      .cls-13 {
        letter-spacing: -.01em;
      }

      .cls-14 {
        letter-spacing: -.02em;
      }

      .cls-15 {
        letter-spacing: -.02em;
      }

      .cls-16 {
        letter-spacing: -.08em;
      }

      .cls-17 {
        letter-spacing: -.02em;
      }
    </style>
  </defs>
  <g id="Text">
    <g>
      <g>
        <text class="cls-2" transform="translate(659.86 474.22)"><tspan class="cls-16" x="0" y="0">V</tspan><tspan class="cls-12" x="165.56" y="0">e</tspan><tspan class="cls-13" x="320.43" y="0">x</tspan><tspan class="cls-17" x="452.03" y="0">i</tspan><tspan class="cls-10" x="510.76" y="0">l</tspan><tspan class="cls-15" x="575.17" y="0">l</tspan><tspan class="cls-14" x="640.29" y="0">u</tspan><tspan x="797.14" y="0">m</tspan></text>
        <text class="cls-2" transform="translate(657.02 471.39)"><tspan class="cls-16" x="0" y="0">V</tspan><tspan class="cls-12" x="165.56" y="0">e</tspan><tspan class="cls-13" x="320.43" y="0">x</tspan><tspan class="cls-17" x="452.03" y="0">i</tspan><tspan class="cls-10" x="510.76" y="0">l</tspan><tspan class="cls-15" x="575.17" y="0">l</tspan><tspan class="cls-14" x="640.29" y="0">u</tspan><tspan x="797.14" y="0">m</tspan></text>
        <text class="cls-2" transform="translate(657.02 471.39)"><tspan class="cls-16" x="0" y="0">V</tspan><tspan class="cls-12" x="165.56" y="0">e</tspan><tspan class="cls-13" x="320.43" y="0">x</tspan><tspan class="cls-17" x="452.03" y="0">i</tspan><tspan class="cls-10" x="510.76" y="0">l</tspan><tspan class="cls-15" x="575.17" y="0">l</tspan><tspan class="cls-14" x="640.29" y="0">u</tspan><tspan x="797.14" y="0">m</tspan></text>
        <text class="cls-2" transform="translate(654.19 468.55)"><tspan class="cls-16" x="0" y="0">V</tspan><tspan class="cls-12" x="165.56" y="0">e</tspan><tspan class="cls-13" x="320.43" y="0">x</tspan><tspan class="cls-17" x="452.03" y="0">i</tspan><tspan class="cls-10" x="510.76" y="0">l</tspan><tspan class="cls-15" x="575.17" y="0">l</tspan><tspan class="cls-14" x="640.29" y="0">u</tspan><tspan x="797.14" y="0">m</tspan></text>
        <text class="cls-2" transform="translate(657.02 471.39)"><tspan class="cls-16" x="0" y="0">V</tspan><tspan class="cls-12" x="165.56" y="0">e</tspan><tspan class="cls-13" x="320.43" y="0">x</tspan><tspan class="cls-17" x="452.03" y="0">i</tspan><tspan class="cls-10" x="510.76" y="0">l</tspan><tspan class="cls-15" x="575.17" y="0">l</tspan><tspan class="cls-14" x="640.29" y="0">u</tspan><tspan x="797.14" y="0">m</tspan></text>
        <text class="cls-2" transform="translate(654.19 468.55)"><tspan class="cls-16" x="0" y="0">V</tspan><tspan class="cls-12" x="165.56" y="0">e</tspan><tspan class="cls-13" x="320.43" y="0">x</tspan><tspan class="cls-17" x="452.03" y="0">i</tspan><tspan class="cls-10" x="510.76" y="0">l</tspan><tspan class="cls-15" x="575.17" y="0">l</tspan><tspan class="cls-14" x="640.29" y="0">u</tspan><tspan x="797.14" y="0">m</tspan></text>
        <text class="cls-2" transform="translate(654.19 468.55)"><tspan class="cls-16" x="0" y="0">V</tspan><tspan class="cls-12" x="165.56" y="0">e</tspan><tspan class="cls-13" x="320.43" y="0">x</tspan><tspan class="cls-17" x="452.03" y="0">i</tspan><tspan class="cls-10" x="510.76" y="0">l</tspan><tspan class="cls-15" x="575.17" y="0">l</tspan><tspan class="cls-14" x="640.29" y="0">u</tspan><tspan x="797.14" y="0">m</tspan></text>
        <text class="cls-2" transform="translate(651.35 465.72)"><tspan class="cls-16" x="0" y="0">V</tspan><tspan class="cls-12" x="165.56" y="0">e</tspan><tspan class="cls-13" x="320.43" y="0">x</tspan><tspan class="cls-17" x="452.03" y="0">i</tspan><tspan class="cls-10" x="510.76" y="0">l</tspan><tspan class="cls-15" x="575.17" y="0">l</tspan><tspan class="cls-14" x="640.29" y="0">u</tspan><tspan x="797.14" y="0">m</tspan></text>
      </g>
      <g>
        <g>
          <text class="cls-1" transform="translate(657.02 471.39)"><tspan class="cls-16" x="0" y="0">V</tspan><tspan class="cls-12" x="165.56" y="0">e</tspan><tspan class="cls-13" x="320.43" y="0">x</tspan><tspan class="cls-17" x="452.03" y="0">i</tspan><tspan class="cls-10" x="510.76" y="0">l</tspan><tspan class="cls-15" x="575.17" y="0">l</tspan><tspan class="cls-14" x="640.29" y="0">u</tspan><tspan x="797.14" y="0">m</tspan></text>
          <text class="cls-1" transform="translate(654.19 468.55)"><tspan class="cls-16" x="0" y="0">V</tspan><tspan class="cls-12" x="165.56" y="0">e</tspan><tspan class="cls-13" x="320.43" y="0">x</tspan><tspan class="cls-17" x="452.03" y="0">i</tspan><tspan class="cls-10" x="510.76" y="0">l</tspan><tspan class="cls-15" x="575.17" y="0">l</tspan><tspan class="cls-14" x="640.29" y="0">u</tspan><tspan x="797.14" y="0">m</tspan></text>
          <text class="cls-1" transform="translate(654.19 468.55)"><tspan class="cls-16" x="0" y="0">V</tspan><tspan class="cls-12" x="165.56" y="0">e</tspan><tspan class="cls-13" x="320.43" y="0">x</tspan><tspan class="cls-17" x="452.03" y="0">i</tspan><tspan class="cls-10" x="510.76" y="0">l</tspan><tspan class="cls-15" x="575.17" y="0">l</tspan><tspan class="cls-14" x="640.29" y="0">u</tspan><tspan x="797.14" y="0">m</tspan></text>
          <text class="cls-1" transform="translate(651.35 465.72)"><tspan class="cls-16" x="0" y="0">V</tspan><tspan class="cls-12" x="165.56" y="0">e</tspan><tspan class="cls-13" x="320.43" y="0">x</tspan><tspan class="cls-17" x="452.03" y="0">i</tspan><tspan class="cls-10" x="510.76" y="0">l</tspan><tspan class="cls-15" x="575.17" y="0">l</tspan><tspan class="cls-14" x="640.29" y="0">u</tspan><tspan x="797.14" y="0">m</tspan></text>
        </g>
        <g>
          <g>
            <text class="cls-4" transform="translate(654.19 468.55)"><tspan class="cls-16" x="0" y="0">V</tspan><tspan class="cls-12" x="165.56" y="0">e</tspan><tspan class="cls-13" x="320.43" y="0">x</tspan><tspan class="cls-17" x="452.03" y="0">i</tspan><tspan class="cls-10" x="510.76" y="0">l</tspan><tspan class="cls-15" x="575.17" y="0">l</tspan><tspan class="cls-14" x="640.29" y="0">u</tspan><tspan x="797.14" y="0">m</tspan></text>
            <text class="cls-4" transform="translate(651.35 465.72)"><tspan class="cls-16" x="0" y="0">V</tspan><tspan class="cls-12" x="165.56" y="0">e</tspan><tspan class="cls-13" x="320.43" y="0">x</tspan><tspan class="cls-17" x="452.03" y="0">i</tspan><tspan class="cls-10" x="510.76" y="0">l</tspan><tspan class="cls-15" x="575.17" y="0">l</tspan><tspan class="cls-14" x="640.29" y="0">u</tspan><tspan x="797.14" y="0">m</tspan></text>
          </g>
          <g>
            <text class="cls-3" transform="translate(651.35 465.72)"><tspan class="cls-16" x="0" y="0">V</tspan><tspan class="cls-12" x="165.56" y="0">e</tspan><tspan class="cls-13" x="320.43" y="0">x</tspan><tspan class="cls-17" x="452.03" y="0">i</tspan><tspan class="cls-10" x="510.76" y="0">l</tspan><tspan class="cls-15" x="575.17" y="0">l</tspan><tspan class="cls-14" x="640.29" y="0">u</tspan><tspan x="797.14" y="0">m</tspan></text>
            <text class="cls-5" transform="translate(648.52 462.88)"><tspan class="cls-16" x="0" y="0">V</tspan><tspan class="cls-12" x="165.56" y="0">e</tspan><tspan class="cls-13" x="320.43" y="0">x</tspan><tspan class="cls-17" x="452.03" y="0">i</tspan><tspan class="cls-10" x="510.76" y="0">l</tspan><tspan class="cls-15" x="575.17" y="0">l</tspan><tspan class="cls-14" x="640.29" y="0">u</tspan><tspan x="797.14" y="0">m</tspan></text>
          </g>
        </g>
      </g>
    </g>
  </g>
  <g id="Decoration">
    <g id="Flag_2" data-name="Flag 2">
      <g>
        <rect id="Stick" class="cls-8" x="1907.65" y="196.44" width="21.98" height="393.41" rx="7.33" ry="7.33" transform="translate(-38.6 322.66) rotate(-9.52)"/>
        <path class="cls-8" d="M1916.87,196.52c10.96-7.7,21.87-14.73,34.33-19.8,8.33,48.35,16.66,96.7,24.99,145.05,23.39-6.82,43.98-8.25,68.25-4.64.38,8.84.56,13.26.91,22.11-37.56-5.12-68.2,3.26-100.87,21.99-9.2-54.9-18.41-109.81-27.61-164.71Z"/>
        <path class="cls-8" d="M2076.82,300.43c4.69,16.89,18.18,30.35,36.62,28.05,16.26-2.03,29.72-15.98,26.97-32.88-3.29-20.22-32.11-20.7-46.58-25.04-26.08-7.83-50.28-26.67-55.77-56.16-6.06-32.6,22.26-36.78,47.75-39.33,29.26-2.93,58.8-8.65,65.34,27.05-8.86,5.3-18.13,9-27.74,12.69-4.38-17.55-19.33-18.77-34.6-18.64-12.84.1-23.91,7.35-21.53,21.16,3.4,19.71,25.05,25.64,41.27,27.78,25.45,3.35,53.69,2.18,58.35,33.75,5.33,36.09-18.48,66.23-50.83,70.83-32.27,4.58-60.46-20.79-68.31-54.91,9.59,2.17,19.3,4.38,29.06,5.67Z"/>
        <rect id="Stick-2" data-name="Stick" class="cls-8" x="1904.81" y="193.61" width="21.98" height="393.41" rx="7.33" ry="7.33" transform="translate(-38.17 322.15) rotate(-9.52)"/>
        <path class="cls-8" d="M1914.03,193.68c10.96-7.7,21.87-14.73,34.33-19.8,8.33,48.35,16.66,96.7,24.99,145.05,23.39-6.82,43.98-8.25,68.25-4.64.38,8.84.56,13.26.91,22.11-37.56-5.12-68.2,3.26-100.87,21.99-9.2-54.9-18.41-109.81-27.61-164.71Z"/>
        <path class="cls-8" d="M2073.98,297.6c4.69,16.89,18.18,30.35,36.62,28.05,16.26-2.03,29.72-15.98,26.97-32.88-3.29-20.22-32.11-20.7-46.58-25.04-26.08-7.83-50.28-26.67-55.77-56.16-6.06-32.6,22.26-36.78,47.75-39.33,29.26-2.93,58.8-8.65,65.34,27.05-8.86,5.3-18.13,9-27.74,12.69-4.38-17.55-19.33-18.77-34.6-18.64-12.84.1-23.91,7.35-21.53,21.16,3.4,19.71,25.05,25.64,41.27,27.78,25.45,3.35,53.69,2.18,58.35,33.75,5.33,36.09-18.48,66.23-50.83,70.83-32.27,4.58-60.46-20.79-68.31-54.91,9.59,2.17,19.3,4.38,29.06,5.67Z"/>
        <rect id="Stick-3" data-name="Stick" class="cls-8" x="1904.81" y="193.61" width="21.98" height="393.41" rx="7.33" ry="7.33" transform="translate(-38.17 322.15) rotate(-9.52)"/>
        <path class="cls-8" d="M1914.03,193.68c10.96-7.7,21.87-14.73,34.33-19.8,8.33,48.35,16.66,96.7,24.99,145.05,23.39-6.82,43.98-8.25,68.25-4.64.38,8.84.56,13.26.91,22.11-37.56-5.12-68.2,3.26-100.87,21.99-9.2-54.9-18.41-109.81-27.61-164.71Z"/>
        <path class="cls-8" d="M2073.98,297.6c4.69,16.89,18.18,30.35,36.62,28.05,16.26-2.03,29.72-15.98,26.97-32.88-3.29-20.22-32.11-20.7-46.58-25.04-26.08-7.83-50.28-26.67-55.77-56.16-6.06-32.6,22.26-36.78,47.75-39.33,29.26-2.93,58.8-8.65,65.34,27.05-8.86,5.3-18.13,9-27.74,12.69-4.38-17.55-19.33-18.77-34.6-18.64-12.84.1-23.91,7.35-21.53,21.16,3.4,19.71,25.05,25.64,41.27,27.78,25.45,3.35,53.69,2.18,58.35,33.75,5.33,36.09-18.48,66.23-50.83,70.83-32.27,4.58-60.46-20.79-68.31-54.91,9.59,2.17,19.3,4.38,29.06,5.67Z"/>
        <rect id="Stick-4" data-name="Stick" class="cls-8" x="1901.98" y="190.77" width="21.98" height="393.41" rx="7.33" ry="7.33" transform="translate(-37.74 321.64) rotate(-9.52)"/>
        <path class="cls-8" d="M1911.2,190.85c10.96-7.7,21.87-14.73,34.33-19.8,8.33,48.35,16.66,96.7,24.99,145.05,23.39-6.82,43.98-8.25,68.25-4.64.38,8.84.56,13.26.91,22.11-37.56-5.12-68.2,3.26-100.87,21.99-9.2-54.9-18.41-109.81-27.61-164.71Z"/>
        <path class="cls-8" d="M2071.15,294.76c4.69,16.89,18.18,30.35,36.62,28.05,16.26-2.03,29.72-15.98,26.97-32.88-3.29-20.22-32.11-20.7-46.58-25.04-26.08-7.83-50.28-26.67-55.77-56.16-6.06-32.6,22.26-36.78,47.75-39.33,29.26-2.93,58.8-8.65,65.34,27.05-8.86,5.3-18.13,9-27.74,12.69-4.38-17.55-19.33-18.77-34.6-18.64-12.84.1-23.91,7.35-21.53,21.16,3.4,19.71,25.05,25.64,41.27,27.78,25.45,3.35,53.69,2.18,58.35,33.75,5.33,36.09-18.48,66.23-50.83,70.83-32.27,4.58-60.46-20.79-68.31-54.91,9.59,2.17,19.3,4.38,29.06,5.67Z"/>
        <rect id="Stick-5" data-name="Stick" class="cls-8" x="1904.81" y="193.61" width="21.98" height="393.41" rx="7.33" ry="7.33" transform="translate(-38.17 322.15) rotate(-9.52)"/>
        <path class="cls-8" d="M1914.03,193.68c10.96-7.7,21.87-14.73,34.33-19.8,8.33,48.35,16.66,96.7,24.99,145.05,23.39-6.82,43.98-8.25,68.25-4.64.38,8.84.56,13.26.91,22.11-37.56-5.12-68.2,3.26-100.87,21.99-9.2-54.9-18.41-109.81-27.61-164.71Z"/>
        <path class="cls-8" d="M2073.98,297.6c4.69,16.89,18.18,30.35,36.62,28.05,16.26-2.03,29.72-15.98,26.97-32.88-3.29-20.22-32.11-20.7-46.58-25.04-26.08-7.83-50.28-26.67-55.77-56.16-6.06-32.6,22.26-36.78,47.75-39.33,29.26-2.93,58.8-8.65,65.34,27.05-8.86,5.3-18.13,9-27.74,12.69-4.38-17.55-19.33-18.77-34.6-18.64-12.84.1-23.91,7.35-21.53,21.16,3.4,19.71,25.05,25.64,41.27,27.78,25.45,3.35,53.69,2.18,58.35,33.75,5.33,36.09-18.48,66.23-50.83,70.83-32.27,4.58-60.46-20.79-68.31-54.91,9.59,2.17,19.3,4.38,29.06,5.67Z"/>
        <rect id="Stick-6" data-name="Stick" class="cls-8" x="1901.98" y="190.77" width="21.98" height="393.41" rx="7.33" ry="7.33" transform="translate(-37.74 321.64) rotate(-9.52)"/>
        <path class="cls-8" d="M1911.2,190.85c10.96-7.7,21.87-14.73,34.33-19.8,8.33,48.35,16.66,96.7,24.99,145.05,23.39-6.82,43.98-8.25,68.25-4.64.38,8.84.56,13.26.91,22.11-37.56-5.12-68.2,3.26-100.87,21.99-9.2-54.9-18.41-109.81-27.61-164.71Z"/>
        <path class="cls-8" d="M2071.15,294.76c4.69,16.89,18.18,30.35,36.62,28.05,16.26-2.03,29.72-15.98,26.97-32.88-3.29-20.22-32.11-20.7-46.58-25.04-26.08-7.83-50.28-26.67-55.77-56.16-6.06-32.6,22.26-36.78,47.75-39.33,29.26-2.93,58.8-8.65,65.34,27.05-8.86,5.3-18.13,9-27.74,12.69-4.38-17.55-19.33-18.77-34.6-18.64-12.84.1-23.91,7.35-21.53,21.16,3.4,19.71,25.05,25.64,41.27,27.78,25.45,3.35,53.69,2.18,58.35,33.75,5.33,36.09-18.48,66.23-50.83,70.83-32.27,4.58-60.46-20.79-68.31-54.91,9.59,2.17,19.3,4.38,29.06,5.67Z"/>
        <rect id="Stick-7" data-name="Stick" class="cls-8" x="1901.98" y="190.77" width="21.98" height="393.41" rx="7.33" ry="7.33" transform="translate(-37.74 321.64) rotate(-9.52)"/>
        <path class="cls-8" d="M1911.2,190.85c10.96-7.7,21.87-14.73,34.33-19.8,8.33,48.35,16.66,96.7,24.99,145.05,23.39-6.82,43.98-8.25,68.25-4.64.38,8.84.56,13.26.91,22.11-37.56-5.12-68.2,3.26-100.87,21.99-9.2-54.9-18.41-109.81-27.61-164.71Z"/>
        <path class="cls-8" d="M2071.15,294.76c4.69,16.89,18.18,30.35,36.62,28.05,16.26-2.03,29.72-15.98,26.97-32.88-3.29-20.22-32.11-20.7-46.58-25.04-26.08-7.83-50.28-26.67-55.77-56.16-6.06-32.6,22.26-36.78,47.75-39.33,29.26-2.93,58.8-8.65,65.34,27.05-8.86,5.3-18.13,9-27.74,12.69-4.38-17.55-19.33-18.77-34.6-18.64-12.84.1-23.91,7.35-21.53,21.16,3.4,19.71,25.05,25.64,41.27,27.78,25.45,3.35,53.69,2.18,58.35,33.75,5.33,36.09-18.48,66.23-50.83,70.83-32.27,4.58-60.46-20.79-68.31-54.91,9.59,2.17,19.3,4.38,29.06,5.67Z"/>
        <rect id="Stick-8" data-name="Stick" class="cls-8" x="1899.14" y="187.94" width="21.98" height="393.41" rx="7.33" ry="7.33" transform="translate(-37.31 321.13) rotate(-9.52)"/>
        <path class="cls-8" d="M1908.36,188.01c10.96-7.7,21.87-14.73,34.33-19.8,8.33,48.35,16.66,96.7,24.99,145.05,23.39-6.82,43.98-8.25,68.25-4.64.38,8.84.56,13.26.91,22.11-37.56-5.12-68.2,3.26-100.87,21.99-9.2-54.9-18.41-109.81-27.61-164.71Z"/>
        <path class="cls-8" d="M2068.31,291.93c4.69,16.89,18.18,30.35,36.62,28.05,16.26-2.03,29.72-15.98,26.97-32.88-3.29-20.22-32.11-20.7-46.58-25.04-26.08-7.83-50.28-26.67-55.77-56.16-6.06-32.6,22.26-36.78,47.75-39.33,29.26-2.93,58.8-8.65,65.34,27.05-8.86,5.3-18.13,9-27.74,12.69-4.38-17.55-19.33-18.77-34.6-18.64-12.84.1-23.91,7.35-21.53,21.16,3.4,19.71,25.05,25.64,41.27,27.78,25.45,3.35,53.69,2.18,58.35,33.75,5.33,36.09-18.48,66.23-50.83,70.83-32.27,4.58-60.46-20.79-68.31-54.91,9.59,2.17,19.3,4.38,29.06,5.67Z"/>
      </g>
      <g>
        <g>
          <rect id="Stick-9" data-name="Stick" class="cls-6" x="1904.81" y="193.61" width="21.98" height="393.41" rx="7.33" ry="7.33" transform="translate(-38.17 322.15) rotate(-9.52)"/>
          <path class="cls-6" d="M1914.03,193.68c10.96-7.7,21.87-14.73,34.33-19.8,8.33,48.35,16.66,96.7,24.99,145.05,23.39-6.82,43.98-8.25,68.25-4.64.38,8.84.56,13.26.91,22.11-37.56-5.12-68.2,3.26-100.87,21.99-9.2-54.9-18.41-109.81-27.61-164.71Z"/>
          <path class="cls-6" d="M2073.98,297.6c4.69,16.89,18.18,30.35,36.62,28.05,16.26-2.03,29.72-15.98,26.97-32.88-3.29-20.22-32.11-20.7-46.58-25.04-26.08-7.83-50.28-26.67-55.77-56.16-6.06-32.6,22.26-36.78,47.75-39.33,29.26-2.93,58.8-8.65,65.34,27.05-8.86,5.3-18.13,9-27.74,12.69-4.38-17.55-19.33-18.77-34.6-18.64-12.84.1-23.91,7.35-21.53,21.16,3.4,19.71,25.05,25.64,41.27,27.78,25.45,3.35,53.69,2.18,58.35,33.75,5.33,36.09-18.48,66.23-50.83,70.83-32.27,4.58-60.46-20.79-68.31-54.91,9.59,2.17,19.3,4.38,29.06,5.67Z"/>
          <rect id="Stick-10" data-name="Stick" class="cls-6" x="1901.98" y="190.77" width="21.98" height="393.41" rx="7.33" ry="7.33" transform="translate(-37.74 321.64) rotate(-9.52)"/>
          <path class="cls-6" d="M1911.2,190.85c10.96-7.7,21.87-14.73,34.33-19.8,8.33,48.35,16.66,96.7,24.99,145.05,23.39-6.82,43.98-8.25,68.25-4.64.38,8.84.56,13.26.91,22.11-37.56-5.12-68.2,3.26-100.87,21.99-9.2-54.9-18.41-109.81-27.61-164.71Z"/>
          <path class="cls-6" d="M2071.15,294.76c4.69,16.89,18.18,30.35,36.62,28.05,16.26-2.03,29.72-15.98,26.97-32.88-3.29-20.22-32.11-20.7-46.58-25.04-26.08-7.83-50.28-26.67-55.77-56.16-6.06-32.6,22.26-36.78,47.75-39.33,29.26-2.93,58.8-8.65,65.34,27.05-8.86,5.3-18.13,9-27.74,12.69-4.38-17.55-19.33-18.77-34.6-18.64-12.84.1-23.91,7.35-21.53,21.16,3.4,19.71,25.05,25.64,41.27,27.78,25.45,3.35,53.69,2.18,58.35,33.75,5.33,36.09-18.48,66.23-50.83,70.83-32.27,4.58-60.46-20.79-68.31-54.91,9.59,2.17,19.3,4.38,29.06,5.67Z"/>
          <rect id="Stick-11" data-name="Stick" class="cls-6" x="1901.98" y="190.77" width="21.98" height="393.41" rx="7.33" ry="7.33" transform="translate(-37.74 321.64) rotate(-9.52)"/>
          <path class="cls-6" d="M1911.2,190.85c10.96-7.7,21.87-14.73,34.33-19.8,8.33,48.35,16.66,96.7,24.99,145.05,23.39-6.82,43.98-8.25,68.25-4.64.38,8.84.56,13.26.91,22.11-37.56-5.12-68.2,3.26-100.87,21.99-9.2-54.9-18.41-109.81-27.61-164.71Z"/>
          <path class="cls-6" d="M2071.15,294.76c4.69,16.89,18.18,30.35,36.62,28.05,16.26-2.03,29.72-15.98,26.97-32.88-3.29-20.22-32.11-20.7-46.58-25.04-26.08-7.83-50.28-26.67-55.77-56.16-6.06-32.6,22.26-36.78,47.75-39.33,29.26-2.93,58.8-8.65,65.34,27.05-8.86,5.3-18.13,9-27.74,12.69-4.38-17.55-19.33-18.77-34.6-18.64-12.84.1-23.91,7.35-21.53,21.16,3.4,19.71,25.05,25.64,41.27,27.78,25.45,3.35,53.69,2.18,58.35,33.75,5.33,36.09-18.48,66.23-50.83,70.83-32.27,4.58-60.46-20.79-68.31-54.91,9.59,2.17,19.3,4.38,29.06,5.67Z"/>
          <rect id="Stick-12" data-name="Stick" class="cls-6" x="1899.14" y="187.94" width="21.98" height="393.41" rx="7.33" ry="7.33" transform="translate(-37.31 321.13) rotate(-9.52)"/>
          <path class="cls-6" d="M1908.36,188.01c10.96-7.7,21.87-14.73,34.33-19.8,8.33,48.35,16.66,96.7,24.99,145.05,23.39-6.82,43.98-8.25,68.25-4.64.38,8.84.56,13.26.91,22.11-37.56-5.12-68.2,3.26-100.87,21.99-9.2-54.9-18.41-109.81-27.61-164.71Z"/>
          <path class="cls-6" d="M2068.31,291.93c4.69,16.89,18.18,30.35,36.62,28.05,16.26-2.03,29.72-15.98,26.97-32.88-3.29-20.22-32.11-20.7-46.58-25.04-26.08-7.83-50.28-26.67-55.77-56.16-6.06-32.6,22.26-36.78,47.75-39.33,29.26-2.93,58.8-8.65,65.34,27.05-8.86,5.3-18.13,9-27.74,12.69-4.38-17.55-19.33-18.77-34.6-18.64-12.84.1-23.91,7.35-21.53,21.16,3.4,19.71,25.05,25.64,41.27,27.78,25.45,3.35,53.69,2.18,58.35,33.75,5.33,36.09-18.48,66.23-50.83,70.83-32.27,4.58-60.46-20.79-68.31-54.91,9.59,2.17,19.3,4.38,29.06,5.67Z"/>
        </g>
        <g>
          <g>
            <rect id="Stick-13" data-name="Stick" class="cls-11" x="1901.98" y="190.77" width="21.98" height="393.41" rx="7.33" ry="7.33" transform="translate(-37.74 321.64) rotate(-9.52)"/>
            <path class="cls-11" d="M1911.2,190.85c10.96-7.7,21.87-14.73,34.33-19.8,8.33,48.35,16.66,96.7,24.99,145.05,23.39-6.82,43.98-8.25,68.25-4.64.38,8.84.56,13.26.91,22.11-37.56-5.12-68.2,3.26-100.87,21.99-9.2-54.9-18.41-109.81-27.61-164.71Z"/>
            <path class="cls-11" d="M2071.15,294.76c4.69,16.89,18.18,30.35,36.62,28.05,16.26-2.03,29.72-15.98,26.97-32.88-3.29-20.22-32.11-20.7-46.58-25.04-26.08-7.83-50.28-26.67-55.77-56.16-6.06-32.6,22.26-36.78,47.75-39.33,29.26-2.93,58.8-8.65,65.34,27.05-8.86,5.3-18.13,9-27.74,12.69-4.38-17.55-19.33-18.77-34.6-18.64-12.84.1-23.91,7.35-21.53,21.16,3.4,19.71,25.05,25.64,41.27,27.78,25.45,3.35,53.69,2.18,58.35,33.75,5.33,36.09-18.48,66.23-50.83,70.83-32.27,4.58-60.46-20.79-68.31-54.91,9.59,2.17,19.3,4.38,29.06,5.67Z"/>
            <rect id="Stick-14" data-name="Stick" class="cls-11" x="1899.14" y="187.94" width="21.98" height="393.41" rx="7.33" ry="7.33" transform="translate(-37.31 321.13) rotate(-9.52)"/>
            <path class="cls-11" d="M1908.36,188.01c10.96-7.7,21.87-14.73,34.33-19.8,8.33,48.35,16.66,96.7,24.99,145.05,23.39-6.82,43.98-8.25,68.25-4.64.38,8.84.56,13.26.91,22.11-37.56-5.12-68.2,3.26-100.87,21.99-9.2-54.9-18.41-109.81-27.61-164.71Z"/>
            <path class="cls-11" d="M2068.31,291.93c4.69,16.89,18.18,30.35,36.62,28.05,16.26-2.03,29.72-15.98,26.97-32.88-3.29-20.22-32.11-20.7-46.58-25.04-26.08-7.83-50.28-26.67-55.77-56.16-6.06-32.6,22.26-36.78,47.75-39.33,29.26-2.93,58.8-8.65,65.34,27.05-8.86,5.3-18.13,9-27.74,12.69-4.38-17.55-19.33-18.77-34.6-18.64-12.84.1-23.91,7.35-21.53,21.16,3.4,19.71,25.05,25.64,41.27,27.78,25.45,3.35,53.69,2.18,58.35,33.75,5.33,36.09-18.48,66.23-50.83,70.83-32.27,4.58-60.46-20.79-68.31-54.91,9.59,2.17,19.3,4.38,29.06,5.67Z"/>
          </g>
          <g>
            <g>
              <rect id="Stick-15" data-name="Stick" class="cls-9" x="1899.14" y="187.94" width="21.98" height="393.41" rx="7.33" ry="7.33" transform="translate(-37.31 321.13) rotate(-9.52)"/>
              <path class="cls-9" d="M1908.36,188.01c10.96-7.7,21.87-14.73,34.33-19.8,8.33,48.35,16.66,96.7,24.99,145.05,23.39-6.82,43.98-8.25,68.25-4.64.38,8.84.56,13.26.91,22.11-37.56-5.12-68.2,3.26-100.87,21.99-9.2-54.9-18.41-109.81-27.61-164.71Z"/>
              <path class="cls-9" d="M2068.31,291.93c4.69,16.89,18.18,30.35,36.62,28.05,16.26-2.03,29.72-15.98,26.97-32.88-3.29-20.22-32.11-20.7-46.58-25.04-26.08-7.83-50.28-26.67-55.77-56.16-6.06-32.6,22.26-36.78,47.75-39.33,29.26-2.93,58.8-8.65,65.34,27.05-8.86,5.3-18.13,9-27.74,12.69-4.38-17.55-19.33-18.77-34.6-18.64-12.84.1-23.91,7.35-21.53,21.16,3.4,19.71,25.05,25.64,41.27,27.78,25.45,3.35,53.69,2.18,58.35,33.75,5.33,36.09-18.48,66.23-50.83,70.83-32.27,4.58-60.46-20.79-68.31-54.91,9.59,2.17,19.3,4.38,29.06,5.67Z"/>
            </g>
            <g>
              <rect id="Stick-16" data-name="Stick" class="cls-7" x="1896.31" y="185.1" width="21.98" height="393.41" rx="7.33" ry="7.33" transform="translate(-36.88 320.63) rotate(-9.52)"/>
              <g>
                <path class="cls-7" d="M1905.53,185.18c10.96-7.7,21.87-14.73,34.33-19.8,8.33,48.35,16.66,96.7,24.99,145.05,23.39-6.82,43.98-8.25,68.25-4.64.38,8.84.56,13.26.91,22.11-37.56-5.12-68.2,3.26-100.87,21.99-9.2-54.9-18.41-109.81-27.61-164.71Z"/>
                <path class="cls-7" d="M2065.48,289.09c4.69,16.89,18.18,30.35,36.62,28.05,16.26-2.03,29.72-15.98,26.97-32.88-3.29-20.22-32.11-20.7-46.58-25.04-26.08-7.83-50.28-26.67-55.77-56.16-6.06-32.6,22.26-36.78,47.75-39.33,29.26-2.93,58.8-8.65,65.34,27.05-8.86,5.3-18.13,9-27.74,12.69-4.38-17.55-19.33-18.77-34.6-18.64-12.84.1-23.91,7.35-21.53,21.16,3.4,19.71,25.05,25.64,41.27,27.78,25.45,3.35,53.69,2.18,58.35,33.75,5.33,36.09-18.48,66.23-50.83,70.83-32.27,4.58-60.46-20.79-68.31-54.91,9.59,2.17,19.3,4.38,29.06,5.67Z"/>
              </g>
            </g>
          </g>
        </g>
      </g>
    </g>
    <g id="Flag_1" data-name="Flag 1">
      <g>
        <rect id="Stick-17" data-name="Stick" class="cls-8" x="227.31" y="196.44" width="21.98" height="393.41" rx="7.33" ry="7.33" transform="translate(-61.73 44.81) rotate(-9.52)"/>
        <path class="cls-8" d="M285.72,271.69c4.33,25.17,8.66,50.34,13,75.52-12.12,4.2-23.11,10.1-34.14,16.58-9.48-56.57-18.97-113.15-28.45-169.72,17.51-12.12,35.29-22.28,56.41-26.5,31.72-6.59,56.6,20.19,60.44,48.14,2.1,15.26.5,31.5-17.06,36.72,19.2,7.78,26.64,28.23,29.96,47.14.51,2.79.77,4.19,1.28,6.99,2.32,12.69,5.06,25.27,9.25,37.48-9.37-2.21-19.42-3.84-29.05-4.18-5.72-11.49-7.97-24.65-10.09-37.19-.44-2.48-.66-3.72-1.1-6.2-2.71-17.18-13.01-35.54-33.45-29.92-6.27,1.44-9.69,2.4-16.98,5.15ZM281.94,249.73c7.8-3.01,11.45-4.03,18.05-5.53,16.09-2.64,27.14-14.39,23.94-31-2.9-15.03-15.21-25.4-30.86-22.84-7.24,1.61-11.35,2.74-20.24,6.38,3.04,17.66,6.08,35.32,9.12,52.98Z"/>
        <path class="cls-8" d="M365.7,172.97c34.89,5.18,69.4.62,100.19-17.43,1.56,9.28,2.33,13.91,3.89,23.19-21.5,12.71-44.11,18.73-68.9,20.75,2.98,16.51,5.97,33.01,8.95,49.52,23.49-2.42,44.97-8.22,65.33-20.54,1.53,9.16,2.3,13.73,3.83,22.89-20.16,12.58-41.48,18.59-64.9,21.18,4.7,25.96,9.39,51.92,14.09,77.89-10.37.24-20.2.21-30.43-1.82-10.68-58.54-21.37-117.08-32.05-175.62Z"/>
        <path class="cls-8" d="M465.71,341.4c-2.18-12.56-4.35-25.13-6.53-37.69,9.21-4.07,18.07-8.15,26.45-13.78,2.07,12.39,4.15,24.77,6.22,37.16-8.26,5.81-17.02,10.07-26.14,14.31Z"/>
        <rect id="Stick-18" data-name="Stick" class="cls-8" x="224.48" y="193.61" width="21.98" height="393.41" rx="7.33" ry="7.33" transform="translate(-61.3 44.31) rotate(-9.52)"/>
        <path class="cls-8" d="M282.89,268.85c4.33,25.17,8.66,50.34,13,75.52-12.12,4.2-23.11,10.1-34.14,16.58-9.48-56.57-18.97-113.15-28.45-169.72,17.51-12.12,35.29-22.28,56.41-26.5,31.72-6.59,56.6,20.19,60.44,48.14,2.1,15.26.5,31.5-17.06,36.72,19.2,7.78,26.64,28.23,29.96,47.14.51,2.79.77,4.19,1.28,6.99,2.32,12.69,5.06,25.27,9.25,37.48-9.37-2.21-19.42-3.84-29.05-4.18-5.72-11.49-7.97-24.65-10.09-37.19-.44-2.48-.66-3.72-1.1-6.2-2.71-17.18-13.01-35.54-33.45-29.92-6.27,1.44-9.69,2.4-16.98,5.15ZM279.11,246.9c7.8-3.01,11.45-4.03,18.05-5.53,16.09-2.64,27.14-14.39,23.94-31-2.9-15.03-15.21-25.4-30.86-22.84-7.24,1.61-11.35,2.74-20.24,6.38,3.04,17.66,6.08,35.32,9.12,52.98Z"/>
        <path class="cls-8" d="M362.86,170.14c34.89,5.18,69.4.62,100.19-17.43,1.56,9.28,2.33,13.91,3.89,23.19-21.5,12.71-44.11,18.73-68.9,20.75,2.98,16.51,5.97,33.01,8.95,49.52,23.49-2.42,44.97-8.22,65.33-20.54,1.53,9.16,2.3,13.73,3.83,22.89-20.16,12.58-41.48,18.59-64.9,21.18,4.7,25.96,9.39,51.92,14.09,77.89-10.37.24-20.2.21-30.43-1.82-10.68-58.54-21.37-117.08-32.05-175.62Z"/>
        <path class="cls-8" d="M462.88,338.57c-2.18-12.56-4.35-25.13-6.53-37.69,9.21-4.07,18.07-8.15,26.45-13.78,2.07,12.39,4.15,24.77,6.22,37.16-8.26,5.81-17.02,10.07-26.14,14.31Z"/>
        <rect id="Stick-19" data-name="Stick" class="cls-8" x="224.48" y="193.61" width="21.98" height="393.41" rx="7.33" ry="7.33" transform="translate(-61.3 44.31) rotate(-9.52)"/>
        <path class="cls-8" d="M282.89,268.85c4.33,25.17,8.66,50.34,13,75.52-12.12,4.2-23.11,10.1-34.14,16.58-9.48-56.57-18.97-113.15-28.45-169.72,17.51-12.12,35.29-22.28,56.41-26.5,31.72-6.59,56.6,20.19,60.44,48.14,2.1,15.26.5,31.5-17.06,36.72,19.2,7.78,26.64,28.23,29.96,47.14.51,2.79.77,4.19,1.28,6.99,2.32,12.69,5.06,25.27,9.25,37.48-9.37-2.21-19.42-3.84-29.05-4.18-5.72-11.49-7.97-24.65-10.09-37.19-.44-2.48-.66-3.72-1.1-6.2-2.71-17.18-13.01-35.54-33.45-29.92-6.27,1.44-9.69,2.4-16.98,5.15ZM279.11,246.9c7.8-3.01,11.45-4.03,18.05-5.53,16.09-2.64,27.14-14.39,23.94-31-2.9-15.03-15.21-25.4-30.86-22.84-7.24,1.61-11.35,2.74-20.24,6.38,3.04,17.66,6.08,35.32,9.12,52.98Z"/>
        <path class="cls-8" d="M362.86,170.14c34.89,5.18,69.4.62,100.19-17.43,1.56,9.28,2.33,13.91,3.89,23.19-21.5,12.71-44.11,18.73-68.9,20.75,2.98,16.51,5.97,33.01,8.95,49.52,23.49-2.42,44.97-8.22,65.33-20.54,1.53,9.16,2.3,13.73,3.83,22.89-20.16,12.58-41.48,18.59-64.9,21.18,4.7,25.96,9.39,51.92,14.09,77.89-10.37.24-20.2.21-30.43-1.82-10.68-58.54-21.37-117.08-32.05-175.62Z"/>
        <path class="cls-8" d="M462.88,338.57c-2.18-12.56-4.35-25.13-6.53-37.69,9.21-4.07,18.07-8.15,26.45-13.78,2.07,12.39,4.15,24.77,6.22,37.16-8.26,5.81-17.02,10.07-26.14,14.31Z"/>
        <rect id="Stick-20" data-name="Stick" class="cls-8" x="221.64" y="190.77" width="21.98" height="393.41" rx="7.33" ry="7.33" transform="translate(-60.87 43.8) rotate(-9.52)"/>
        <path class="cls-8" d="M280.05,266.02c4.33,25.17,8.66,50.34,13,75.52-12.12,4.2-23.11,10.1-34.14,16.58-9.48-56.57-18.97-113.15-28.45-169.72,17.51-12.12,35.29-22.28,56.41-26.5,31.72-6.59,56.6,20.19,60.44,48.14,2.1,15.26.5,31.5-17.06,36.72,19.2,7.78,26.64,28.23,29.96,47.14.51,2.79.77,4.19,1.28,6.99,2.32,12.69,5.06,25.27,9.25,37.48-9.37-2.21-19.42-3.84-29.05-4.18-5.72-11.49-7.97-24.65-10.09-37.19-.44-2.48-.66-3.72-1.1-6.2-2.71-17.18-13.01-35.54-33.45-29.92-6.27,1.44-9.69,2.4-16.98,5.15ZM276.27,244.06c7.8-3.01,11.45-4.03,18.05-5.53,16.09-2.64,27.14-14.39,23.94-31-2.9-15.03-15.21-25.4-30.86-22.84-7.24,1.61-11.35,2.74-20.24,6.38,3.04,17.66,6.08,35.32,9.12,52.98Z"/>
        <path class="cls-8" d="M360.03,167.3c34.89,5.18,69.4.62,100.19-17.43,1.56,9.28,2.33,13.91,3.89,23.19-21.5,12.71-44.11,18.73-68.9,20.75,2.98,16.51,5.97,33.01,8.95,49.52,23.49-2.42,44.97-8.22,65.33-20.54,1.53,9.16,2.3,13.73,3.83,22.89-20.16,12.58-41.48,18.59-64.9,21.18,4.7,25.96,9.39,51.92,14.09,77.89-10.37.24-20.2.21-30.43-1.82-10.68-58.54-21.37-117.08-32.05-175.62Z"/>
        <path class="cls-8" d="M460.04,335.73c-2.18-12.56-4.35-25.13-6.53-37.69,9.21-4.07,18.07-8.15,26.45-13.78,2.07,12.39,4.15,24.77,6.22,37.16-8.26,5.81-17.02,10.07-26.14,14.31Z"/>
        <rect id="Stick-21" data-name="Stick" class="cls-8" x="224.48" y="193.61" width="21.98" height="393.41" rx="7.33" ry="7.33" transform="translate(-61.3 44.31) rotate(-9.52)"/>
        <path class="cls-8" d="M282.89,268.85c4.33,25.17,8.66,50.34,13,75.52-12.12,4.2-23.11,10.1-34.14,16.58-9.48-56.57-18.97-113.15-28.45-169.72,17.51-12.12,35.29-22.28,56.41-26.5,31.72-6.59,56.6,20.19,60.44,48.14,2.1,15.26.5,31.5-17.06,36.72,19.2,7.78,26.64,28.23,29.96,47.14.51,2.79.77,4.19,1.28,6.99,2.32,12.69,5.06,25.27,9.25,37.48-9.37-2.21-19.42-3.84-29.05-4.18-5.72-11.49-7.97-24.65-10.09-37.19-.44-2.48-.66-3.72-1.1-6.2-2.71-17.18-13.01-35.54-33.45-29.92-6.27,1.44-9.69,2.4-16.98,5.15ZM279.11,246.9c7.8-3.01,11.45-4.03,18.05-5.53,16.09-2.64,27.14-14.39,23.94-31-2.9-15.03-15.21-25.4-30.86-22.84-7.24,1.61-11.35,2.74-20.24,6.38,3.04,17.66,6.08,35.32,9.12,52.98Z"/>
        <path class="cls-8" d="M362.86,170.14c34.89,5.18,69.4.62,100.19-17.43,1.56,9.28,2.33,13.91,3.89,23.19-21.5,12.71-44.11,18.73-68.9,20.75,2.98,16.51,5.97,33.01,8.95,49.52,23.49-2.42,44.97-8.22,65.33-20.54,1.53,9.16,2.3,13.73,3.83,22.89-20.16,12.58-41.48,18.59-64.9,21.18,4.7,25.96,9.39,51.92,14.09,77.89-10.37.24-20.2.21-30.43-1.82-10.68-58.54-21.37-117.08-32.05-175.62Z"/>
        <path class="cls-8" d="M462.88,338.57c-2.18-12.56-4.35-25.13-6.53-37.69,9.21-4.07,18.07-8.15,26.45-13.78,2.07,12.39,4.15,24.77,6.22,37.16-8.26,5.81-17.02,10.07-26.14,14.31Z"/>
        <rect id="Stick-22" data-name="Stick" class="cls-8" x="221.64" y="190.77" width="21.98" height="393.41" rx="7.33" ry="7.33" transform="translate(-60.87 43.8) rotate(-9.52)"/>
        <path class="cls-8" d="M280.05,266.02c4.33,25.17,8.66,50.34,13,75.52-12.12,4.2-23.11,10.1-34.14,16.58-9.48-56.57-18.97-113.15-28.45-169.72,17.51-12.12,35.29-22.28,56.41-26.5,31.72-6.59,56.6,20.19,60.44,48.14,2.1,15.26.5,31.5-17.06,36.72,19.2,7.78,26.64,28.23,29.96,47.14.51,2.79.77,4.19,1.28,6.99,2.32,12.69,5.06,25.27,9.25,37.48-9.37-2.21-19.42-3.84-29.05-4.18-5.72-11.49-7.97-24.65-10.09-37.19-.44-2.48-.66-3.72-1.1-6.2-2.71-17.18-13.01-35.54-33.45-29.92-6.27,1.44-9.69,2.4-16.98,5.15ZM276.27,244.06c7.8-3.01,11.45-4.03,18.05-5.53,16.09-2.64,27.14-14.39,23.94-31-2.9-15.03-15.21-25.4-30.86-22.84-7.24,1.61-11.35,2.74-20.24,6.38,3.04,17.66,6.08,35.32,9.12,52.98Z"/>
        <path class="cls-8" d="M360.03,167.3c34.89,5.18,69.4.62,100.19-17.43,1.56,9.28,2.33,13.91,3.89,23.19-21.5,12.71-44.11,18.73-68.9,20.75,2.98,16.51,5.97,33.01,8.95,49.52,23.49-2.42,44.97-8.22,65.33-20.54,1.53,9.16,2.3,13.73,3.83,22.89-20.16,12.58-41.48,18.59-64.9,21.18,4.7,25.96,9.39,51.92,14.09,77.89-10.37.24-20.2.21-30.43-1.82-10.68-58.54-21.37-117.08-32.05-175.62Z"/>
        <path class="cls-8" d="M460.04,335.73c-2.18-12.56-4.35-25.13-6.53-37.69,9.21-4.07,18.07-8.15,26.45-13.78,2.07,12.39,4.15,24.77,6.22,37.16-8.26,5.81-17.02,10.07-26.14,14.31Z"/>
        <rect id="Stick-23" data-name="Stick" class="cls-8" x="221.64" y="190.77" width="21.98" height="393.41" rx="7.33" ry="7.33" transform="translate(-60.87 43.8) rotate(-9.52)"/>
        <path class="cls-8" d="M280.05,266.02c4.33,25.17,8.66,50.34,13,75.52-12.12,4.2-23.11,10.1-34.14,16.58-9.48-56.57-18.97-113.15-28.45-169.72,17.51-12.12,35.29-22.28,56.41-26.5,31.72-6.59,56.6,20.19,60.44,48.14,2.1,15.26.5,31.5-17.06,36.72,19.2,7.78,26.64,28.23,29.96,47.14.51,2.79.77,4.19,1.28,6.99,2.32,12.69,5.06,25.27,9.25,37.48-9.37-2.21-19.42-3.84-29.05-4.18-5.72-11.49-7.97-24.65-10.09-37.19-.44-2.48-.66-3.72-1.1-6.2-2.71-17.18-13.01-35.54-33.45-29.92-6.27,1.44-9.69,2.4-16.98,5.15ZM276.27,244.06c7.8-3.01,11.45-4.03,18.05-5.53,16.09-2.64,27.14-14.39,23.94-31-2.9-15.03-15.21-25.4-30.86-22.84-7.24,1.61-11.35,2.74-20.24,6.38,3.04,17.66,6.08,35.32,9.12,52.98Z"/>
        <path class="cls-8" d="M360.03,167.3c34.89,5.18,69.4.62,100.19-17.43,1.56,9.28,2.33,13.91,3.89,23.19-21.5,12.71-44.11,18.73-68.9,20.75,2.98,16.51,5.97,33.01,8.95,49.52,23.49-2.42,44.97-8.22,65.33-20.54,1.53,9.16,2.3,13.73,3.83,22.89-20.16,12.58-41.48,18.59-64.9,21.18,4.7,25.96,9.39,51.92,14.09,77.89-10.37.24-20.2.21-30.43-1.82-10.68-58.54-21.37-117.08-32.05-175.62Z"/>
        <path class="cls-8" d="M460.04,335.73c-2.18-12.56-4.35-25.13-6.53-37.69,9.21-4.07,18.07-8.15,26.45-13.78,2.07,12.39,4.15,24.77,6.22,37.16-8.26,5.81-17.02,10.07-26.14,14.31Z"/>
        <rect id="Stick-24" data-name="Stick" class="cls-8" x="218.81" y="187.94" width="21.98" height="393.41" rx="7.33" ry="7.33" transform="translate(-60.44 43.29) rotate(-9.52)"/>
        <path class="cls-8" d="M277.22,263.18c4.33,25.17,8.66,50.34,13,75.52-12.12,4.2-23.11,10.1-34.14,16.58-9.48-56.57-18.97-113.15-28.45-169.72,17.51-12.12,35.29-22.28,56.41-26.5,31.72-6.59,56.6,20.19,60.44,48.14,2.1,15.26.5,31.5-17.06,36.72,19.2,7.78,26.64,28.23,29.96,47.14.51,2.79.77,4.19,1.28,6.99,2.32,12.69,5.06,25.27,9.25,37.48-9.37-2.21-19.42-3.84-29.05-4.18-5.72-11.49-7.97-24.65-10.09-37.19-.44-2.48-.66-3.72-1.1-6.2-2.71-17.18-13.01-35.54-33.45-29.92-6.27,1.44-9.69,2.4-16.98,5.15ZM273.44,241.23c7.8-3.01,11.45-4.03,18.05-5.53,16.09-2.64,27.14-14.39,23.94-31-2.9-15.03-15.21-25.4-30.86-22.84-7.24,1.61-11.35,2.74-20.24,6.38,3.04,17.66,6.08,35.32,9.12,52.98Z"/>
        <path class="cls-8" d="M357.19,164.47c34.89,5.18,69.4.62,100.19-17.43,1.56,9.28,2.33,13.91,3.89,23.19-21.5,12.71-44.11,18.73-68.9,20.75,2.98,16.51,5.97,33.01,8.95,49.52,23.49-2.42,44.97-8.22,65.33-20.54,1.53,9.16,2.3,13.73,3.83,22.89-20.16,12.58-41.48,18.59-64.9,21.18,4.7,25.96,9.39,51.92,14.09,77.89-10.37.24-20.2.21-30.43-1.82-10.68-58.54-21.37-117.08-32.05-175.62Z"/>
        <path class="cls-8" d="M457.21,332.9c-2.18-12.56-4.35-25.13-6.53-37.69,9.21-4.07,18.07-8.15,26.45-13.78,2.07,12.39,4.15,24.77,6.22,37.16-8.26,5.81-17.02,10.07-26.14,14.31Z"/>
      </g>
      <g>
        <g>
          <rect id="Stick-25" data-name="Stick" class="cls-6" x="224.48" y="193.61" width="21.98" height="393.41" rx="7.33" ry="7.33" transform="translate(-61.3 44.31) rotate(-9.52)"/>
          <path class="cls-6" d="M282.89,268.85c4.33,25.17,8.66,50.34,13,75.52-12.12,4.2-23.11,10.1-34.14,16.58-9.48-56.57-18.97-113.15-28.45-169.72,17.51-12.12,35.29-22.28,56.41-26.5,31.72-6.59,56.6,20.19,60.44,48.14,2.1,15.26.5,31.5-17.06,36.72,19.2,7.78,26.64,28.23,29.96,47.14.51,2.79.77,4.19,1.28,6.99,2.32,12.69,5.06,25.27,9.25,37.48-9.37-2.21-19.42-3.84-29.05-4.18-5.72-11.49-7.97-24.65-10.09-37.19-.44-2.48-.66-3.72-1.1-6.2-2.71-17.18-13.01-35.54-33.45-29.92-6.27,1.44-9.69,2.4-16.98,5.15ZM279.11,246.9c7.8-3.01,11.45-4.03,18.05-5.53,16.09-2.64,27.14-14.39,23.94-31-2.9-15.03-15.21-25.4-30.86-22.84-7.24,1.61-11.35,2.74-20.24,6.38,3.04,17.66,6.08,35.32,9.12,52.98Z"/>
          <path class="cls-6" d="M362.86,170.14c34.89,5.18,69.4.62,100.19-17.43,1.56,9.28,2.33,13.91,3.89,23.19-21.5,12.71-44.11,18.73-68.9,20.75,2.98,16.51,5.97,33.01,8.95,49.52,23.49-2.42,44.97-8.22,65.33-20.54,1.53,9.16,2.3,13.73,3.83,22.89-20.16,12.58-41.48,18.59-64.9,21.18,4.7,25.96,9.39,51.92,14.09,77.89-10.37.24-20.2.21-30.43-1.82-10.68-58.54-21.37-117.08-32.05-175.62Z"/>
          <path class="cls-6" d="M462.88,338.57c-2.18-12.56-4.35-25.13-6.53-37.69,9.21-4.07,18.07-8.15,26.45-13.78,2.07,12.39,4.15,24.77,6.22,37.16-8.26,5.81-17.02,10.07-26.14,14.31Z"/>
          <rect id="Stick-26" data-name="Stick" class="cls-6" x="221.64" y="190.77" width="21.98" height="393.41" rx="7.33" ry="7.33" transform="translate(-60.87 43.8) rotate(-9.52)"/>
          <path class="cls-6" d="M280.05,266.02c4.33,25.17,8.66,50.34,13,75.52-12.12,4.2-23.11,10.1-34.14,16.58-9.48-56.57-18.97-113.15-28.45-169.72,17.51-12.12,35.29-22.28,56.41-26.5,31.72-6.59,56.6,20.19,60.44,48.14,2.1,15.26.5,31.5-17.06,36.72,19.2,7.78,26.64,28.23,29.96,47.14.51,2.79.77,4.19,1.28,6.99,2.32,12.69,5.06,25.27,9.25,37.48-9.37-2.21-19.42-3.84-29.05-4.18-5.72-11.49-7.97-24.65-10.09-37.19-.44-2.48-.66-3.72-1.1-6.2-2.71-17.18-13.01-35.54-33.45-29.92-6.27,1.44-9.69,2.4-16.98,5.15ZM276.27,244.06c7.8-3.01,11.45-4.03,18.05-5.53,16.09-2.64,27.14-14.39,23.94-31-2.9-15.03-15.21-25.4-30.86-22.84-7.24,1.61-11.35,2.74-20.24,6.38,3.04,17.66,6.08,35.32,9.12,52.98Z"/>
          <path class="cls-6" d="M360.03,167.3c34.89,5.18,69.4.62,100.19-17.43,1.56,9.28,2.33,13.91,3.89,23.19-21.5,12.71-44.11,18.73-68.9,20.75,2.98,16.51,5.97,33.01,8.95,49.52,23.49-2.42,44.97-8.22,65.33-20.54,1.53,9.16,2.3,13.73,3.83,22.89-20.16,12.58-41.48,18.59-64.9,21.18,4.7,25.96,9.39,51.92,14.09,77.89-10.37.24-20.2.21-30.43-1.82-10.68-58.54-21.37-117.08-32.05-175.62Z"/>
          <path class="cls-6" d="M460.04,335.73c-2.18-12.56-4.35-25.13-6.53-37.69,9.21-4.07,18.07-8.15,26.45-13.78,2.07,12.39,4.15,24.77,6.22,37.16-8.26,5.81-17.02,10.07-26.14,14.31Z"/>
          <rect id="Stick-27" data-name="Stick" class="cls-6" x="221.64" y="190.77" width="21.98" height="393.41" rx="7.33" ry="7.33" transform="translate(-60.87 43.8) rotate(-9.52)"/>
          <path class="cls-6" d="M280.05,266.02c4.33,25.17,8.66,50.34,13,75.52-12.12,4.2-23.11,10.1-34.14,16.58-9.48-56.57-18.97-113.15-28.45-169.72,17.51-12.12,35.29-22.28,56.41-26.5,31.72-6.59,56.6,20.19,60.44,48.14,2.1,15.26.5,31.5-17.06,36.72,19.2,7.78,26.64,28.23,29.96,47.14.51,2.79.77,4.19,1.28,6.99,2.32,12.69,5.06,25.27,9.25,37.48-9.37-2.21-19.42-3.84-29.05-4.18-5.72-11.49-7.97-24.65-10.09-37.19-.44-2.48-.66-3.72-1.1-6.2-2.71-17.18-13.01-35.54-33.45-29.92-6.27,1.44-9.69,2.4-16.98,5.15ZM276.27,244.06c7.8-3.01,11.45-4.03,18.05-5.53,16.09-2.64,27.14-14.39,23.94-31-2.9-15.03-15.21-25.4-30.86-22.84-7.24,1.61-11.35,2.74-20.24,6.38,3.04,17.66,6.08,35.32,9.12,52.98Z"/>
          <path class="cls-6" d="M360.03,167.3c34.89,5.18,69.4.62,100.19-17.43,1.56,9.28,2.33,13.91,3.89,23.19-21.5,12.71-44.11,18.73-68.9,20.75,2.98,16.51,5.97,33.01,8.95,49.52,23.49-2.42,44.97-8.22,65.33-20.54,1.53,9.16,2.3,13.73,3.83,22.89-20.16,12.58-41.48,18.59-64.9,21.18,4.7,25.96,9.39,51.92,14.09,77.89-10.37.24-20.2.21-30.43-1.82-10.68-58.54-21.37-117.08-32.05-175.62Z"/>
          <path class="cls-6" d="M460.04,335.73c-2.18-12.56-4.35-25.13-6.53-37.69,9.21-4.07,18.07-8.15,26.45-13.78,2.07,12.39,4.15,24.77,6.22,37.16-8.26,5.81-17.02,10.07-26.14,14.31Z"/>
          <rect id="Stick-28" data-name="Stick" class="cls-6" x="218.81" y="187.94" width="21.98" height="393.41" rx="7.33" ry="7.33" transform="translate(-60.44 43.29) rotate(-9.52)"/>
          <path class="cls-6" d="M277.22,263.18c4.33,25.17,8.66,50.34,13,75.52-12.12,4.2-23.11,10.1-34.14,16.58-9.48-56.57-18.97-113.15-28.45-169.72,17.51-12.12,35.29-22.28,56.41-26.5,31.72-6.59,56.6,20.19,60.44,48.14,2.1,15.26.5,31.5-17.06,36.72,19.2,7.78,26.64,28.23,29.96,47.14.51,2.79.77,4.19,1.28,6.99,2.32,12.69,5.06,25.27,9.25,37.48-9.37-2.21-19.42-3.84-29.05-4.18-5.72-11.49-7.97-24.65-10.09-37.19-.44-2.48-.66-3.72-1.1-6.2-2.71-17.18-13.01-35.54-33.45-29.92-6.27,1.44-9.69,2.4-16.98,5.15ZM273.44,241.23c7.8-3.01,11.45-4.03,18.05-5.53,16.09-2.64,27.14-14.39,23.94-31-2.9-15.03-15.21-25.4-30.86-22.84-7.24,1.61-11.35,2.74-20.24,6.38,3.04,17.66,6.08,35.32,9.12,52.98Z"/>
          <path class="cls-6" d="M357.19,164.47c34.89,5.18,69.4.62,100.19-17.43,1.56,9.28,2.33,13.91,3.89,23.19-21.5,12.71-44.11,18.73-68.9,20.75,2.98,16.51,5.97,33.01,8.95,49.52,23.49-2.42,44.97-8.22,65.33-20.54,1.53,9.16,2.3,13.73,3.83,22.89-20.16,12.58-41.48,18.59-64.9,21.18,4.7,25.96,9.39,51.92,14.09,77.89-10.37.24-20.2.21-30.43-1.82-10.68-58.54-21.37-117.08-32.05-175.62Z"/>
          <path class="cls-6" d="M457.21,332.9c-2.18-12.56-4.35-25.13-6.53-37.69,9.21-4.07,18.07-8.15,26.45-13.78,2.07,12.39,4.15,24.77,6.22,37.16-8.26,5.81-17.02,10.07-26.14,14.31Z"/>
        </g>
        <g>
          <g>
            <rect id="Stick-29" data-name="Stick" class="cls-11" x="221.64" y="190.77" width="21.98" height="393.41" rx="7.33" ry="7.33" transform="translate(-60.87 43.8) rotate(-9.52)"/>
            <path class="cls-11" d="M280.05,266.02c4.33,25.17,8.66,50.34,13,75.52-12.12,4.2-23.11,10.1-34.14,16.58-9.48-56.57-18.97-113.15-28.45-169.72,17.51-12.12,35.29-22.28,56.41-26.5,31.72-6.59,56.6,20.19,60.44,48.14,2.1,15.26.5,31.5-17.06,36.72,19.2,7.78,26.64,28.23,29.96,47.14.51,2.79.77,4.19,1.28,6.99,2.32,12.69,5.06,25.27,9.25,37.48-9.37-2.21-19.42-3.84-29.05-4.18-5.72-11.49-7.97-24.65-10.09-37.19-.44-2.48-.66-3.72-1.1-6.2-2.71-17.18-13.01-35.54-33.45-29.92-6.27,1.44-9.69,2.4-16.98,5.15ZM276.27,244.06c7.8-3.01,11.45-4.03,18.05-5.53,16.09-2.64,27.14-14.39,23.94-31-2.9-15.03-15.21-25.4-30.86-22.84-7.24,1.61-11.35,2.74-20.24,6.38,3.04,17.66,6.08,35.32,9.12,52.98Z"/>
            <path class="cls-11" d="M360.03,167.3c34.89,5.18,69.4.62,100.19-17.43,1.56,9.28,2.33,13.91,3.89,23.19-21.5,12.71-44.11,18.73-68.9,20.75,2.98,16.51,5.97,33.01,8.95,49.52,23.49-2.42,44.97-8.22,65.33-20.54,1.53,9.16,2.3,13.73,3.83,22.89-20.16,12.58-41.48,18.59-64.9,21.18,4.7,25.96,9.39,51.92,14.09,77.89-10.37.24-20.2.21-30.43-1.82-10.68-58.54-21.37-117.08-32.05-175.62Z"/>
            <path class="cls-11" d="M460.04,335.73c-2.18-12.56-4.35-25.13-6.53-37.69,9.21-4.07,18.07-8.15,26.45-13.78,2.07,12.39,4.15,24.77,6.22,37.16-8.26,5.81-17.02,10.07-26.14,14.31Z"/>
            <rect id="Stick-30" data-name="Stick" class="cls-11" x="218.81" y="187.94" width="21.98" height="393.41" rx="7.33" ry="7.33" transform="translate(-60.44 43.29) rotate(-9.52)"/>
            <path class="cls-11" d="M277.22,263.18c4.33,25.17,8.66,50.34,13,75.52-12.12,4.2-23.11,10.1-34.14,16.58-9.48-56.57-18.97-113.15-28.45-169.72,17.51-12.12,35.29-22.28,56.41-26.5,31.72-6.59,56.6,20.19,60.44,48.14,2.1,15.26.5,31.5-17.06,36.72,19.2,7.78,26.64,28.23,29.96,47.14.51,2.79.77,4.19,1.28,6.99,2.32,12.69,5.06,25.27,9.25,37.48-9.37-2.21-19.42-3.84-29.05-4.18-5.72-11.49-7.97-24.65-10.09-37.19-.44-2.48-.66-3.72-1.1-6.2-2.71-17.18-13.01-35.54-33.45-29.92-6.27,1.44-9.69,2.4-16.98,5.15ZM273.44,241.23c7.8-3.01,11.45-4.03,18.05-5.53,16.09-2.64,27.14-14.39,23.94-31-2.9-15.03-15.21-25.4-30.86-22.84-7.24,1.61-11.35,2.74-20.24,6.38,3.04,17.66,6.08,35.32,9.12,52.98Z"/>
            <path class="cls-11" d="M357.19,164.47c34.89,5.18,69.4.62,100.19-17.43,1.56,9.28,2.33,13.91,3.89,23.19-21.5,12.71-44.11,18.73-68.9,20.75,2.98,16.51,5.97,33.01,8.95,49.52,23.49-2.42,44.97-8.22,65.33-20.54,1.53,9.16,2.3,13.73,3.83,22.89-20.16,12.58-41.48,18.59-64.9,21.18,4.7,25.96,9.39,51.92,14.09,77.89-10.37.24-20.2.21-30.43-1.82-10.68-58.54-21.37-117.08-32.05-175.62Z"/>
            <path class="cls-11" d="M457.21,332.9c-2.18-12.56-4.35-25.13-6.53-37.69,9.21-4.07,18.07-8.15,26.45-13.78,2.07,12.39,4.15,24.77,6.22,37.16-8.26,5.81-17.02,10.07-26.14,14.31Z"/>
          </g>
          <g>
            <g>
              <rect id="Stick-31" data-name="Stick" class="cls-9" x="218.81" y="187.94" width="21.98" height="393.41" rx="7.33" ry="7.33" transform="translate(-60.44 43.29) rotate(-9.52)"/>
              <path class="cls-9" d="M277.22,263.18c4.33,25.17,8.66,50.34,13,75.52-12.12,4.2-23.11,10.1-34.14,16.58-9.48-56.57-18.97-113.15-28.45-169.72,17.51-12.12,35.29-22.28,56.41-26.5,31.72-6.59,56.6,20.19,60.44,48.14,2.1,15.26.5,31.5-17.06,36.72,19.2,7.78,26.64,28.23,29.96,47.14.51,2.79.77,4.19,1.28,6.99,2.32,12.69,5.06,25.27,9.25,37.48-9.37-2.21-19.42-3.84-29.05-4.18-5.72-11.49-7.97-24.65-10.09-37.19-.44-2.48-.66-3.72-1.1-6.2-2.71-17.18-13.01-35.54-33.45-29.92-6.27,1.44-9.69,2.4-16.98,5.15ZM273.44,241.23c7.8-3.01,11.45-4.03,18.05-5.53,16.09-2.64,27.14-14.39,23.94-31-2.9-15.03-15.21-25.4-30.86-22.84-7.24,1.61-11.35,2.74-20.24,6.38,3.04,17.66,6.08,35.32,9.12,52.98Z"/>
              <path class="cls-9" d="M357.19,164.47c34.89,5.18,69.4.62,100.19-17.43,1.56,9.28,2.33,13.91,3.89,23.19-21.5,12.71-44.11,18.73-68.9,20.75,2.98,16.51,5.97,33.01,8.95,49.52,23.49-2.42,44.97-8.22,65.33-20.54,1.53,9.16,2.3,13.73,3.83,22.89-20.16,12.58-41.48,18.59-64.9,21.18,4.7,25.96,9.39,51.92,14.09,77.89-10.37.24-20.2.21-30.43-1.82-10.68-58.54-21.37-117.08-32.05-175.62Z"/>
              <path class="cls-9" d="M457.21,332.9c-2.18-12.56-4.35-25.13-6.53-37.69,9.21-4.07,18.07-8.15,26.45-13.78,2.07,12.39,4.15,24.77,6.22,37.16-8.26,5.81-17.02,10.07-26.14,14.31Z"/>
            </g>
            <g>
              <rect id="Stick-32" data-name="Stick" class="cls-7" x="215.97" y="185.1" width="21.98" height="393.41" rx="7.33" ry="7.33" transform="translate(-60.01 42.78) rotate(-9.52)"/>
              <g>
                <path class="cls-7" d="M274.38,260.35c4.33,25.17,8.66,50.34,13,75.52-12.12,4.2-23.11,10.1-34.14,16.58-9.48-56.57-18.97-113.15-28.45-169.72,17.51-12.12,35.29-22.28,56.41-26.5,31.72-6.59,56.6,20.19,60.44,48.14,2.1,15.26.5,31.5-17.06,36.72,19.2,7.78,26.64,28.23,29.96,47.14.51,2.79.77,4.19,1.28,6.99,2.32,12.69,5.06,25.27,9.25,37.48-9.37-2.21-19.42-3.84-29.05-4.18-5.72-11.49-7.97-24.65-10.09-37.19-.44-2.48-.66-3.72-1.1-6.2-2.71-17.18-13.01-35.54-33.45-29.92-6.27,1.44-9.69,2.4-16.98,5.15ZM270.61,238.39c7.8-3.01,11.45-4.03,18.05-5.53,16.09-2.64,27.14-14.39,23.94-31-2.9-15.03-15.21-25.4-30.86-22.84-7.24,1.61-11.35,2.74-20.24,6.38,3.04,17.66,6.08,35.32,9.12,52.98Z"/>
                <path class="cls-7" d="M354.36,161.64c34.89,5.18,69.4.62,100.19-17.43,1.56,9.28,2.33,13.91,3.89,23.19-21.5,12.71-44.11,18.73-68.9,20.75,2.98,16.51,5.97,33.01,8.95,49.52,23.49-2.42,44.97-8.22,65.33-20.54,1.53,9.16,2.3,13.73,3.83,22.89-20.16,12.58-41.48,18.59-64.9,21.18,4.7,25.96,9.39,51.92,14.09,77.89-10.37.24-20.2.21-30.43-1.82-10.68-58.54-21.37-117.08-32.05-175.62Z"/>
                <path class="cls-7" d="M454.37,330.06c-2.18-12.56-4.35-25.13-6.53-37.69,9.21-4.07,18.07-8.15,26.45-13.78,2.07,12.39,4.15,24.77,6.22,37.16-8.26,5.81-17.02,10.07-26.14,14.31Z"/>
              </g>
            </g>
          </g>
        </g>
      </g>
    </g>
  </g>
</svg>