<?xml version="1.0" encoding="UTF-8"?>
<svg id="Ebene_4" data-name="Ebene 4" xmlns="http://www.w3.org/2000/svg" xmlns:xlink="http://www.w3.org/1999/xlink" viewBox="0 0 234.14 376.44">
  <defs>
    <style>
      .cls-1 {
        stroke-width: 35px;
      }

      .cls-1, .cls-2 {
        stroke: #171717;
      }

      .cls-1, .cls-2, .cls-3, .cls-4, .cls-5 {
        fill: none;
        stroke-miterlimit: 10;
      }

      .cls-2 {
        stroke-width: 26px;
      }

      .cls-3 {
        stroke: url(#Unbenannter_Verlauf_185-2);
        stroke-width: 31px;
      }

      .cls-4 {
        stroke: url(#Unbenannter_Verlauf_185-3);
        stroke-width: 18px;
      }

      .cls-5 {
        stroke: url(#Unbenannter_Verlauf_185);
        stroke-width: 37px;
      }
    </style>
    <linearGradient id="Unbenannter_Verlauf_185" data-name="Unbenannter Verlauf 185" x1="72.24" y1="361.35" x2="72.24" y2="-57.15" gradientUnits="userSpaceOnUse">
      <stop offset="0" stop-color="#c700d4"/>
      <stop offset=".13" stop-color="#c000d4"/>
      <stop offset=".31" stop-color="#ae00d4"/>
      <stop offset=".52" stop-color="#9000d4"/>
      <stop offset=".76" stop-color="#6600d4"/>
      <stop offset="1" stop-color="#3300d4"/>
    </linearGradient>
    <linearGradient id="Unbenannter_Verlauf_185-2" data-name="Unbenannter Verlauf 185" x1="70.74" y1="358.35" x2="70.74" xlink:href="#Unbenannter_Verlauf_185"/>
    <linearGradient id="Unbenannter_Verlauf_185-3" data-name="Unbenannter Verlauf 185" x1="67.49" y1="351.85" x2="67.49" xlink:href="#Unbenannter_Verlauf_185"/>
  </defs>
  <path class="cls-5" d="M-73.07,342.85H31.84c25.35,0,45.9-20.55,45.9-45.9V121.54c0-25.35,20.55-45.9,45.9-45.9h29.51c25.35,0,45.9-20.55,45.9-45.9V-57.15"/>
  <path class="cls-1" d="M-73.07,342.85H31.84c25.35,0,45.9-20.55,45.9-45.9V121.54c0-25.35,20.55-45.9,45.9-45.9h29.51c25.35,0,45.9-20.55,45.9-45.9V-57.15"/>
  <path class="cls-3" d="M-73.07,342.85H31.84c25.35,0,45.9-20.55,45.9-45.9V121.54c0-25.35,20.55-45.9,45.9-45.9h29.51c25.35,0,45.9-20.55,45.9-45.9V-57.15"/>
  <path class="cls-2" d="M-73.07,342.85H31.84c25.35,0,45.9-20.55,45.9-45.9V121.54c0-25.35,20.55-45.9,45.9-45.9h29.51c25.35,0,45.9-20.55,45.9-45.9V-57.15"/>
  <path class="cls-4" d="M-73.07,342.85H31.84c25.35,0,45.9-20.55,45.9-45.9V121.54c0-25.35,20.55-45.9,45.9-45.9h29.51c25.35,0,45.9-20.55,45.9-45.9V-57.15"/>
</svg>